<svg width="163" height="45" viewBox="0 0 163 45" fill="none" xmlns="http://www.w3.org/2000/svg">
<path d="M141 17.3846L147.667 22.7692L161 12" stroke="#33CC95" stroke-width="4" stroke-linecap="round" stroke-linejoin="round"/>
<path d="M141 26.6154L147.667 32L161 21.2308" stroke="#33CC95" stroke-width="4" stroke-linecap="round" stroke-linejoin="round"/>
<path d="M121 12L135 12" stroke="#F3F1FA" stroke-width="5" stroke-linecap="round" stroke-linejoin="round"/>
<path d="M121 33L135 33" stroke="#F3F1FA" stroke-width="5" stroke-linecap="round" stroke-linejoin="round"/>
<path d="M121 22.5L135 22.5" stroke="#F3F1FA" stroke-width="5" stroke-linecap="round" stroke-linejoin="round"/>
<path d="M11.124 36C10.548 36 10.08 35.832 9.72 35.496C9.384 35.136 9.216 34.692 9.216 34.164V12.6H13.068V34.164C13.068 34.692 12.876 35.136 12.492 35.496C12.132 35.832 11.676 36 11.124 36ZM2.952 14.256C2.448 14.256 2.016 14.1 1.656 13.788C1.296 13.452 1.116 13.02 1.116 12.492C1.116 11.988 1.296 11.58 1.656 11.268C2.016 10.956 2.448 10.8 2.952 10.8H19.332C19.836 10.8 20.256 10.968 20.592 11.304C20.952 11.616 21.132 12.024 21.132 12.528C21.132 13.056 20.952 13.476 20.592 13.788C20.256 14.1 19.836 14.256 19.332 14.256H2.952ZM36.7391 16.776C37.2671 16.776 37.6991 16.956 38.0351 17.316C38.3711 17.652 38.5391 18.084 38.5391 18.612V34.164C38.5391 34.692 38.3711 35.136 38.0351 35.496C37.6991 35.832 37.2671 36 36.7391 36C36.2351 36 35.8031 35.832 35.4431 35.496C35.1071 35.136 34.9391 34.692 34.9391 34.164V31.572L35.6951 31.68C35.6951 32.112 35.5151 32.592 35.1551 33.12C34.8191 33.648 34.3511 34.164 33.7511 34.668C33.1511 35.148 32.4431 35.556 31.6271 35.892C30.8111 36.204 29.9351 36.36 28.9991 36.36C27.3431 36.36 25.8551 35.94 24.5351 35.1C23.2151 34.236 22.1711 33.06 21.4031 31.572C20.6351 30.084 20.2511 28.392 20.2511 26.496C20.2511 24.552 20.6351 22.848 21.4031 21.384C22.1711 19.896 23.2031 18.732 24.4991 17.892C25.8191 17.052 27.2831 16.632 28.8911 16.632C29.9231 16.632 30.8711 16.8 31.7351 17.136C32.6231 17.472 33.3911 17.904 34.0391 18.432C34.6871 18.96 35.1791 19.524 35.5151 20.124C35.8751 20.7 36.0551 21.252 36.0551 21.78L34.9391 21.888V18.612C34.9391 18.108 35.1071 17.676 35.4431 17.316C35.8031 16.956 36.2351 16.776 36.7391 16.776ZM29.3951 33.048C30.5231 33.048 31.5191 32.76 32.3831 32.184C33.2471 31.608 33.9191 30.828 34.3991 29.844C34.8791 28.836 35.1191 27.72 35.1191 26.496C35.1191 25.248 34.8791 24.132 34.3991 23.148C33.9191 22.164 33.2471 21.384 32.3831 20.808C31.5191 20.232 30.5231 19.944 29.3951 19.944C28.2911 19.944 27.3071 20.232 26.4431 20.808C25.6031 21.384 24.9311 22.164 24.4271 23.148C23.9471 24.132 23.7071 25.248 23.7071 26.496C23.7071 27.72 23.9471 28.836 24.4271 29.844C24.9311 30.828 25.6031 31.608 26.4431 32.184C27.3071 32.76 28.2911 33.048 29.3951 33.048ZM42.4665 33.048C42.2505 32.712 42.1545 32.328 42.1785 31.896C42.2025 31.44 42.4545 31.056 42.9345 30.744C43.2705 30.528 43.6185 30.444 43.9785 30.492C44.3625 30.516 44.7225 30.696 45.0585 31.032C45.7305 31.776 46.4745 32.364 47.2905 32.796C48.1305 33.228 49.1385 33.444 50.3145 33.444C50.7945 33.42 51.2865 33.348 51.7905 33.228C52.2945 33.084 52.7265 32.844 53.0865 32.508C53.4465 32.148 53.6265 31.632 53.6265 30.96C53.6265 30.36 53.4345 29.88 53.0505 29.52C52.6665 29.16 52.1625 28.872 51.5385 28.656C50.9145 28.416 50.2425 28.2 49.5225 28.008C48.7545 27.792 47.9745 27.552 47.1825 27.288C46.4145 27.024 45.7185 26.688 45.0945 26.28C44.4705 25.848 43.9545 25.296 43.5465 24.624C43.1625 23.952 42.9705 23.124 42.9705 22.14C42.9705 21.012 43.2825 20.04 43.9065 19.224C44.5545 18.408 45.3825 17.772 46.3905 17.316C47.4225 16.86 48.5385 16.632 49.7385 16.632C50.4345 16.632 51.1665 16.728 51.9345 16.92C52.7025 17.088 53.4465 17.364 54.1665 17.748C54.8865 18.132 55.5105 18.636 56.0385 19.26C56.2785 19.572 56.4105 19.944 56.4345 20.376C56.4825 20.808 56.2905 21.192 55.8585 21.528C55.5705 21.768 55.2225 21.876 54.8145 21.852C54.4065 21.828 54.0705 21.696 53.8065 21.456C53.3505 20.88 52.7625 20.436 52.0425 20.124C51.3225 19.788 50.5065 19.62 49.5945 19.62C49.1385 19.62 48.6585 19.692 48.1545 19.836C47.6745 19.956 47.2665 20.184 46.9305 20.52C46.5945 20.856 46.4265 21.348 46.4265 21.996C46.4265 22.596 46.6185 23.076 47.0025 23.436C47.4105 23.796 47.9385 24.096 48.5865 24.336C49.2345 24.576 49.9425 24.792 50.7105 24.984C51.4545 25.176 52.1865 25.404 52.9065 25.668C53.6505 25.932 54.3105 26.28 54.8865 26.712C55.4865 27.12 55.9665 27.66 56.3265 28.332C56.7105 28.98 56.9025 29.808 56.9025 30.816C56.9025 31.992 56.5545 33 55.8585 33.84C55.1865 34.656 54.3225 35.28 53.2665 35.712C52.2345 36.144 51.1425 36.36 49.9905 36.36C48.6225 36.36 47.2545 36.12 45.8865 35.64C44.5425 35.136 43.4025 34.272 42.4665 33.048ZM78.7379 36.036C78.1859 36.036 77.7419 35.808 77.4059 35.352L68.4419 23.796L71.2139 20.988L80.3579 32.904C80.6459 33.288 80.7899 33.708 80.7899 34.164C80.7899 34.74 80.5739 35.196 80.1419 35.532C79.7099 35.868 79.2419 36.036 78.7379 36.036ZM78.9179 10.692C79.3979 10.692 79.7939 10.884 80.1059 11.268C80.4179 11.652 80.5739 12.048 80.5739 12.456C80.5739 12.888 80.3939 13.284 80.0339 13.644L64.5179 28.368L64.3019 24.12L77.4779 11.376C77.9099 10.92 78.3899 10.692 78.9179 10.692ZM63.0419 36C62.4899 36 62.0339 35.832 61.6739 35.496C61.3379 35.136 61.1699 34.692 61.1699 34.164V12.636C61.1699 12.108 61.3499 11.676 61.7099 11.34C62.0699 10.98 62.5379 10.8 63.1139 10.8C63.6659 10.8 64.1099 10.98 64.4459 11.34C64.7819 11.676 64.9499 12.108 64.9499 12.636V34.164C64.9259 34.692 64.7459 35.136 64.4099 35.496C64.0739 35.832 63.6179 36 63.0419 36ZM88.4978 34.164C88.4978 34.692 88.3178 35.136 87.9578 35.496C87.6218 35.832 87.2018 36 86.6978 36C86.1938 36 85.7618 35.832 85.4018 35.496C85.0658 35.136 84.8978 34.692 84.8978 34.164V11.196C84.8978 10.668 85.0778 10.236 85.4378 9.9C85.7978 9.54 86.2298 9.36 86.7338 9.36C87.2618 9.36 87.6818 9.54 87.9938 9.9C88.3298 10.236 88.4978 10.668 88.4978 11.196V34.164ZM97.2399 34.164C97.2399 34.692 97.0719 35.136 96.7359 35.496C96.3999 35.832 95.9679 36 95.4399 36C94.9359 36 94.5039 35.832 94.1439 35.496C93.8079 35.136 93.6399 34.692 93.6399 34.164V18.756C93.6399 18.228 93.8079 17.796 94.1439 17.46C94.5039 17.1 94.9359 16.92 95.4399 16.92C95.9679 16.92 96.3999 17.1 96.7359 17.46C97.0719 17.796 97.2399 18.228 97.2399 18.756V34.164ZM95.4039 14.544C94.7079 14.544 94.2039 14.424 93.8919 14.184C93.5799 13.92 93.4239 13.488 93.4239 12.888V12.312C93.4239 11.712 93.5919 11.292 93.9279 11.052C94.2639 10.812 94.7679 10.692 95.4399 10.692C96.1599 10.692 96.6759 10.824 96.9879 11.088C97.2999 11.328 97.4559 11.736 97.4559 12.312V12.888C97.4559 13.512 97.2879 13.944 96.9519 14.184C96.6399 14.424 96.1239 14.544 95.4039 14.544ZM110.903 9.396C111.359 9.396 111.827 9.456 112.307 9.576C112.787 9.696 113.183 9.9 113.495 10.188C113.831 10.452 113.999 10.824 113.999 11.304C113.999 11.784 113.855 12.18 113.567 12.492C113.279 12.78 112.943 12.924 112.559 12.924C112.319 12.924 111.995 12.876 111.587 12.78C111.179 12.66 110.771 12.6 110.363 12.6C109.811 12.6 109.367 12.732 109.031 12.996C108.695 13.236 108.455 13.548 108.311 13.932C108.167 14.292 108.095 14.652 108.095 15.012V34.164C108.095 34.692 107.915 35.136 107.555 35.496C107.219 35.832 106.799 36 106.295 36C105.767 36 105.335 35.832 104.999 35.496C104.663 35.136 104.495 34.692 104.495 34.164V15.048C104.495 13.392 105.035 12.036 106.115 10.98C107.219 9.924 108.815 9.396 110.903 9.396ZM111.623 17.388C112.103 17.388 112.499 17.544 112.811 17.856C113.123 18.168 113.279 18.564 113.279 19.044C113.279 19.524 113.123 19.92 112.811 20.232C112.499 20.544 112.103 20.7 111.623 20.7H102.299C101.843 20.7 101.447 20.544 101.111 20.232C100.799 19.92 100.643 19.524 100.643 19.044C100.643 18.564 100.799 18.168 101.111 17.856C101.447 17.544 101.843 17.388 102.299 17.388H111.623Z" fill="#F3F1FA"/>
<path d="M9.72 35.496L9.35447 35.8372L9.36624 35.8498L9.37884 35.8615L9.72 35.496ZM9.216 12.6V12.1H8.716V12.6H9.216ZM13.068 12.6H13.568V12.1H13.068V12.6ZM12.492 35.496L12.8332 35.8615L12.834 35.8608L12.492 35.496ZM1.656 13.788L1.31484 14.1535L1.32157 14.1598L1.32853 14.1658L1.656 13.788ZM1.656 11.268L1.98347 11.6458V11.6458L1.656 11.268ZM20.592 11.304L20.2384 11.6576L20.2511 11.6702L20.2645 11.6818L20.592 11.304ZM20.592 13.788L20.2645 13.4102L20.2581 13.4158L20.2518 13.4216L20.592 13.788ZM11.124 36V35.5C10.6517 35.5 10.3131 35.3656 10.0612 35.1305L9.72 35.496L9.37884 35.8615C9.84694 36.2984 10.4443 36.5 11.124 36.5V36ZM9.72 35.496L10.0855 35.1548C9.84254 34.8945 9.716 34.5754 9.716 34.164H9.216H8.716C8.716 34.8086 8.92546 35.3775 9.35447 35.8372L9.72 35.496ZM9.216 34.164H9.716V12.6H9.216H8.716V34.164H9.216ZM9.216 12.6V13.1H13.068V12.6V12.1H9.216V12.6ZM13.068 12.6H12.568V34.164H13.068H13.568V12.6H13.068ZM13.068 34.164H12.568C12.568 34.5543 12.4328 34.8661 12.15 35.1312L12.492 35.496L12.834 35.8608C13.3192 35.4059 13.568 34.8297 13.568 34.164H13.068ZM12.492 35.496L12.1508 35.1305C11.8949 35.3694 11.5659 35.5 11.124 35.5V36V36.5C11.7861 36.5 12.3691 36.2946 12.8332 35.8615L12.492 35.496ZM2.952 14.256V13.756C2.56072 13.756 2.24699 13.6385 1.98347 13.4102L1.656 13.788L1.32853 14.1658C1.78501 14.5615 2.33529 14.756 2.952 14.756V14.256ZM1.656 13.788L1.99716 13.4225C1.74638 13.1884 1.616 12.8926 1.616 12.492H1.116H0.616C0.616 13.1474 0.845617 13.7156 1.31484 14.1535L1.656 13.788ZM1.116 12.492H1.616C1.616 12.1234 1.74007 11.8568 1.98347 11.6458L1.656 11.268L1.32853 10.8902C0.851932 11.3032 0.616 11.8525 0.616 12.492H1.116ZM1.656 11.268L1.98347 11.6458C2.24699 11.4175 2.56072 11.3 2.952 11.3V10.8V10.3C2.33529 10.3 1.78501 10.4945 1.32853 10.8902L1.656 11.268ZM2.952 10.8V11.3H19.332V10.8V10.3H2.952V10.8ZM19.332 10.8V11.3C19.7123 11.3 20.0023 11.4214 20.2384 11.6576L20.592 11.304L20.9456 10.9504C20.5097 10.5145 19.9597 10.3 19.332 10.3V10.8ZM20.592 11.304L20.2645 11.6818C20.5079 11.8928 20.632 12.1594 20.632 12.528H21.132H21.632C21.632 11.8885 21.3961 11.3392 20.9195 10.9262L20.592 11.304ZM21.132 12.528H20.632C20.632 12.9286 20.5023 13.2041 20.2645 13.4102L20.592 13.788L20.9195 14.1658C21.4017 13.7479 21.632 13.1834 21.632 12.528H21.132ZM20.592 13.788L20.2518 13.4216C20.0178 13.6389 19.7234 13.756 19.332 13.756V14.256V14.756C19.9486 14.756 20.4942 14.5611 20.9322 14.1544L20.592 13.788ZM19.332 14.256V13.756H2.952V14.256V14.756H19.332V14.256ZM38.0351 17.316L37.6696 17.6572L37.6755 17.6635L37.6816 17.6695L38.0351 17.316ZM38.0351 35.496L38.3887 35.8496L38.3948 35.8435L38.4007 35.8372L38.0351 35.496ZM35.4431 35.496L35.0776 35.8372L35.0894 35.8498L35.102 35.8615L35.4431 35.496ZM34.9391 31.572L35.0098 31.077L34.4391 30.9955V31.572H34.9391ZM35.6951 31.68H36.1951V31.2464L35.7658 31.185L35.6951 31.68ZM35.1551 33.12L34.742 32.8383L34.7375 32.8449L34.7333 32.8516L35.1551 33.12ZM33.7511 34.668L34.0636 35.0585L34.0727 35.0509L33.7511 34.668ZM31.6271 35.892L31.8058 36.3592L31.8175 36.3543L31.6271 35.892ZM24.5351 35.1L24.2613 35.5184L24.2667 35.5218L24.5351 35.1ZM21.4031 31.572L20.9588 31.8013V31.8013L21.4031 31.572ZM21.4031 21.384L21.8459 21.6163L21.8474 21.6133L21.4031 21.384ZM24.4991 17.892L24.2307 17.4702L24.2272 17.4724L24.4991 17.892ZM31.7351 17.136L31.5539 17.602L31.5582 17.6036L31.7351 17.136ZM34.0391 18.432L34.355 18.0444V18.0444L34.0391 18.432ZM35.5151 20.124L35.0789 20.3683L35.0848 20.3788L35.0911 20.389L35.5151 20.124ZM36.0551 21.78L36.1033 22.2777L36.5551 22.2339V21.78H36.0551ZM34.9391 21.888H34.4391V22.4387L34.9873 22.3857L34.9391 21.888ZM35.4431 17.316L35.0896 16.9624L35.0835 16.9685L35.0776 16.9748L35.4431 17.316ZM32.3831 32.184L32.6605 32.6V32.6L32.3831 32.184ZM34.3991 29.844L34.8485 30.0632L34.8506 30.059L34.3991 29.844ZM32.3831 20.808L32.6605 20.392V20.392L32.3831 20.808ZM26.4431 20.808L26.1658 20.3919L26.1604 20.3956L26.4431 20.808ZM24.4271 23.148L23.982 22.92L23.9777 22.9288L24.4271 23.148ZM24.4271 29.844L23.9757 30.059L23.9788 30.0655L23.9821 30.0719L24.4271 29.844ZM26.4431 32.184L26.1603 32.5964L26.1658 32.6L26.4431 32.184ZM36.7391 16.776V17.276C37.1397 17.276 37.4355 17.4064 37.6696 17.6572L38.0351 17.316L38.4007 16.9748C37.9627 16.5056 37.3945 16.276 36.7391 16.276V16.776ZM38.0351 17.316L37.6816 17.6695C37.913 17.901 38.0391 18.2005 38.0391 18.612H38.5391H39.0391C39.0391 17.9675 38.8293 17.403 38.3887 16.9624L38.0351 17.316ZM38.5391 18.612H38.0391V34.164H38.5391H39.0391V18.612H38.5391ZM38.5391 34.164H38.0391C38.0391 34.5754 37.9126 34.8945 37.6696 35.1548L38.0351 35.496L38.4007 35.8372C38.8297 35.3775 39.0391 34.8086 39.0391 34.164H38.5391ZM38.0351 35.496L37.6816 35.1424C37.4502 35.3738 37.1507 35.5 36.7391 35.5V36V36.5C37.3836 36.5 37.9481 36.2902 38.3887 35.8496L38.0351 35.496ZM36.7391 36V35.5C36.3585 35.5 36.0493 35.3778 35.7843 35.1305L35.4431 35.496L35.102 35.8615C35.5569 36.2862 36.1118 36.5 36.7391 36.5V36ZM35.4431 35.496L35.8087 35.1548C35.5657 34.8945 35.4391 34.5754 35.4391 34.164H34.9391H34.4391C34.4391 34.8086 34.6486 35.3775 35.0776 35.8372L35.4431 35.496ZM34.9391 34.164H35.4391V31.572H34.9391H34.4391V34.164H34.9391ZM34.9391 31.572L34.8684 32.067L35.6244 32.175L35.6951 31.68L35.7658 31.185L35.0098 31.077L34.9391 31.572ZM35.6951 31.68H35.1951C35.1951 31.974 35.0711 32.3557 34.742 32.8383L35.1551 33.12L35.5682 33.4017C35.9592 32.8283 36.1951 32.25 36.1951 31.68H35.6951ZM35.1551 33.12L34.7333 32.8516C34.4306 33.3273 33.9999 33.8061 33.4295 34.2851L33.7511 34.668L34.0727 35.0509C34.7024 34.5219 35.2077 33.9687 35.577 33.3884L35.1551 33.12ZM33.7511 34.668L33.4388 34.2776C32.8808 34.7239 32.2153 35.1091 31.4368 35.4297L31.6271 35.892L31.8175 36.3543C32.671 36.0029 33.4214 35.5721 34.0635 35.0584L33.7511 34.668ZM31.6271 35.892L31.4486 35.425C30.6935 35.7137 29.8785 35.86 28.9991 35.86V36.36V36.86C29.9918 36.86 30.9287 36.6943 31.8057 36.359L31.6271 35.892ZM28.9991 36.36V35.86C27.4324 35.86 26.0386 35.4641 24.8036 34.6782L24.5351 35.1L24.2667 35.5218C25.6717 36.4159 27.2539 36.86 28.9991 36.86V36.36ZM24.5351 35.1L24.809 34.6816C23.5656 33.8678 22.5784 32.7589 21.8474 31.3427L21.4031 31.572L20.9588 31.8013C21.7639 33.3611 22.8647 34.6042 24.2613 35.5184L24.5351 35.1ZM21.4031 31.572L21.8474 31.3427C21.1206 29.9345 20.7511 28.3229 20.7511 26.496H20.2511H19.7511C19.7511 28.4611 20.1496 30.2335 20.9588 31.8013L21.4031 31.572ZM20.2511 26.496H20.7511C20.7511 24.6187 21.1216 22.997 21.8459 21.6163L21.4031 21.384L20.9604 21.1517C20.1487 22.699 19.7511 24.4853 19.7511 26.496H20.2511ZM21.4031 21.384L21.8474 21.6133C22.579 20.1959 23.5542 19.1003 24.7711 18.3116L24.4991 17.892L24.2272 17.4724C22.8521 18.3637 21.7633 19.5961 20.9588 21.1547L21.4031 21.384ZM24.4991 17.892L24.7676 18.3138C26.005 17.5264 27.3754 17.132 28.8911 17.132V16.632V16.132C27.1908 16.132 25.6332 16.5776 24.2307 17.4702L24.4991 17.892ZM28.8911 16.632V17.132C29.8681 17.132 30.7539 17.2909 31.5539 17.602L31.7351 17.136L31.9163 16.67C30.9884 16.3091 29.9781 16.132 28.8911 16.132V16.632ZM31.7351 17.136L31.5582 17.6036C32.4026 17.9232 33.1222 18.3299 33.7233 18.8196L34.0391 18.432L34.355 18.0444C33.66 17.4781 32.8436 17.0208 31.9121 16.6684L31.7351 17.136ZM34.0391 18.432L33.7233 18.8196C34.3327 19.3162 34.7795 19.8337 35.0789 20.3683L35.5151 20.124L35.9514 19.8797C35.5788 19.2143 35.0415 18.6038 34.355 18.0444L34.0391 18.432ZM35.5151 20.124L35.0911 20.389C35.4155 20.908 35.5551 21.3691 35.5551 21.78H36.0551H36.5551C36.5551 21.1349 36.3348 20.492 35.9391 19.859L35.5151 20.124ZM36.0551 21.78L36.007 21.2823L34.891 21.3903L34.9391 21.888L34.9873 22.3857L36.1033 22.2777L36.0551 21.78ZM34.9391 21.888H35.4391V18.612H34.9391H34.4391V21.888H34.9391ZM34.9391 18.612H35.4391C35.4391 18.2313 35.5613 17.9222 35.8087 17.6572L35.4431 17.316L35.0776 16.9748C34.653 17.4298 34.4391 17.9846 34.4391 18.612H34.9391ZM35.4431 17.316L35.7967 17.6696C36.064 17.4023 36.3692 17.276 36.7391 17.276V16.776V16.276C36.101 16.276 35.5423 16.5097 35.0896 16.9624L35.4431 17.316ZM29.3951 33.048V33.548C30.6129 33.548 31.7072 33.2355 32.6605 32.6L32.3831 32.184L32.1058 31.768C31.331 32.2845 30.4333 32.548 29.3951 32.548V33.048ZM32.3831 32.184L32.6605 32.6C33.6023 31.9721 34.3318 31.1224 34.8485 30.0632L34.3991 29.844L33.9497 29.6248C33.5064 30.5336 32.8919 31.2439 32.1058 31.768L32.3831 32.184ZM34.3991 29.844L34.8506 30.059C35.3655 28.9776 35.6191 27.7871 35.6191 26.496H35.1191H34.6191C34.6191 27.6529 34.3927 28.6944 33.9477 29.629L34.3991 29.844ZM35.1191 26.496H35.6191C35.6191 25.1827 35.3662 23.99 34.8485 22.9288L34.3991 23.148L33.9497 23.3672C34.3921 24.274 34.6191 25.3133 34.6191 26.496H35.1191ZM34.3991 23.148L34.8485 22.9288C34.3318 21.8696 33.6023 21.0199 32.6605 20.392L32.3831 20.808L32.1058 21.224C32.8919 21.7481 33.5064 22.4584 33.9497 23.3672L34.3991 23.148ZM32.3831 20.808L32.6605 20.392C31.7072 19.7565 30.6129 19.444 29.3951 19.444V19.944V20.444C30.4333 20.444 31.331 20.7075 32.1058 21.224L32.3831 20.808ZM29.3951 19.944V19.444C28.199 19.444 27.1172 19.7577 26.1658 20.392L26.4431 20.808L26.7205 21.224C27.4971 20.7063 28.3833 20.444 29.3951 20.444V19.944ZM26.4431 20.808L26.1604 20.3956C25.246 21.0226 24.5207 21.8685 23.9821 22.9201L24.4271 23.148L24.8721 23.3759C25.3416 22.4595 25.9602 21.7454 26.7259 21.2204L26.4431 20.808ZM24.4271 23.148L23.9777 22.9288C23.4601 23.99 23.2071 25.1827 23.2071 26.496H23.7071H24.2071C24.2071 25.3133 24.4342 24.274 24.8765 23.3672L24.4271 23.148ZM23.7071 26.496H23.2071C23.2071 27.7871 23.4607 28.9776 23.9757 30.059L24.4271 29.844L24.8786 29.629C24.4335 28.6944 24.2071 27.6529 24.2071 26.496H23.7071ZM24.4271 29.844L23.9821 30.0719C24.5207 31.1235 25.246 31.9694 26.1604 32.5964L26.4431 32.184L26.7259 31.7716C25.9602 31.2466 25.3416 30.5325 24.8721 29.6161L24.4271 29.844ZM26.4431 32.184L26.1658 32.6C27.1172 33.2343 28.199 33.548 29.3951 33.548V33.048V32.548C28.3833 32.548 27.4971 32.2857 26.7205 31.768L26.4431 32.184ZM42.4665 33.048L42.0459 33.3184L42.0569 33.3355L42.0693 33.3517L42.4665 33.048ZM42.1785 31.896L42.6777 31.9237L42.6778 31.9223L42.1785 31.896ZM42.9345 30.744L42.6641 30.3234L42.662 30.3248L42.9345 30.744ZM43.9785 30.492L43.9124 30.9876L43.9298 30.9899L43.9473 30.991L43.9785 30.492ZM45.0585 31.032L45.4296 30.6969L45.421 30.6874L45.4121 30.6784L45.0585 31.032ZM47.2905 32.796L47.0565 33.2379L47.0618 33.2406L47.2905 32.796ZM50.3145 33.444V33.944H50.327L50.3395 33.9434L50.3145 33.444ZM51.7905 33.228L51.9063 33.7144L51.9171 33.7118L51.9279 33.7088L51.7905 33.228ZM53.0865 32.508L53.4277 32.8735L53.434 32.8676L53.4401 32.8616L53.0865 32.508ZM51.5385 28.656L51.359 29.1227L51.3669 29.1257L51.3749 29.1285L51.5385 28.656ZM49.5225 28.008L49.3871 28.4894L49.3937 28.4911L49.5225 28.008ZM47.1825 27.288L47.02 27.7609L47.0244 27.7623L47.1825 27.288ZM45.0945 26.28L44.8098 26.6912L44.8209 26.6985L45.0945 26.28ZM43.5465 24.624L43.1122 24.8722L43.1191 24.8835L43.5465 24.624ZM43.9065 19.224L43.5149 18.913L43.5093 18.9203L43.9065 19.224ZM46.3905 17.316L46.1884 16.8586L46.1844 16.8604L46.3905 17.316ZM51.9345 16.92L51.8132 17.4051L51.8204 17.4069L51.8277 17.4084L51.9345 16.92ZM54.1665 17.748L54.4018 17.3068V17.3068L54.1665 17.748ZM56.0385 19.26L56.4348 18.9551L56.4277 18.9459L56.4202 18.937L56.0385 19.26ZM56.4345 20.376L55.9353 20.4037L55.936 20.4175L55.9376 20.4312L56.4345 20.376ZM55.8585 21.528L55.5515 21.1333L55.5449 21.1385L55.5384 21.1439L55.8585 21.528ZM54.8145 21.852L54.7851 22.3511V22.3511L54.8145 21.852ZM53.8065 21.456L53.4145 21.7663L53.4399 21.7984L53.4702 21.826L53.8065 21.456ZM52.0425 20.124L51.831 20.5773L51.8437 20.5828L52.0425 20.124ZM48.1545 19.836L48.2758 20.3211L48.2839 20.319L48.2919 20.3168L48.1545 19.836ZM46.9305 20.52L47.2841 20.8736V20.8736L46.9305 20.52ZM47.0025 23.436L46.6605 23.8008L46.666 23.8059L46.6717 23.8109L47.0025 23.436ZM48.5865 24.336L48.4128 24.8049V24.8049L48.5865 24.336ZM50.7105 24.984L50.8354 24.4998L50.8318 24.4989L50.7105 24.984ZM52.9065 25.668L52.7344 26.1375L52.7393 26.1392L52.9065 25.668ZM54.8865 26.712L54.5865 27.112L54.5958 27.1189L54.6053 27.1255L54.8865 26.712ZM56.3265 28.332L55.8858 28.5681L55.8909 28.5776L55.8964 28.5869L56.3265 28.332ZM55.8585 33.84L55.4735 33.521L55.4725 33.5221L55.8585 33.84ZM53.2665 35.712L53.0772 35.2492L53.0734 35.2508L53.2665 35.712ZM45.8865 35.64L45.7109 36.1083L45.721 36.1118L45.8865 35.64ZM42.4665 33.048L42.8871 32.7776C42.7329 32.5377 42.6591 32.2598 42.6777 31.9237L42.1785 31.896L41.6793 31.8683C41.6499 32.3962 41.7681 32.8863 42.0459 33.3184L42.4665 33.048ZM42.1785 31.896L42.6778 31.9223C42.6913 31.6663 42.8232 31.4127 43.207 31.1632L42.9345 30.744L42.662 30.3248C42.0858 30.6993 41.7137 31.2137 41.6792 31.8697L42.1785 31.896ZM42.9345 30.744L43.2049 31.1646C43.4518 31.0058 43.6819 30.9569 43.9124 30.9876L43.9785 30.492L44.0446 29.9964C43.5551 29.9311 43.0892 30.0502 42.6641 30.3234L42.9345 30.744ZM43.9785 30.492L43.9473 30.991C44.1829 31.0058 44.434 31.1146 44.7049 31.3856L45.0585 31.032L45.4121 30.6784C45.011 30.2774 44.5421 30.0262 44.0097 29.993L43.9785 30.492ZM45.0585 31.032L44.6875 31.3671C45.3952 32.1507 46.1847 32.7763 47.0566 33.2379L47.2905 32.796L47.5244 32.3541C46.7643 31.9517 46.0658 31.4013 45.4296 30.6969L45.0585 31.032ZM47.2905 32.796L47.0618 33.2406C47.9878 33.7169 49.0781 33.944 50.3145 33.944V33.444V32.944C49.1989 32.944 48.2732 32.7391 47.5192 32.3514L47.2905 32.796ZM50.3145 33.444L50.3395 33.9434C50.8524 33.9177 51.3748 33.841 51.9063 33.7144L51.7905 33.228L51.6747 32.7416C51.1982 32.855 50.7366 32.9223 50.2895 32.9446L50.3145 33.444ZM51.7905 33.228L51.9279 33.7088C52.5029 33.5445 53.0061 33.267 53.4277 32.8735L53.0865 32.508L52.7453 32.1425C52.4469 32.421 52.0861 32.6235 51.6531 32.7472L51.7905 33.228ZM53.0865 32.508L53.4401 32.8616C53.9209 32.3807 54.1265 31.7206 54.1265 30.96H53.6265H53.1265C53.1265 31.5434 52.9721 31.9153 52.7329 32.1544L53.0865 32.508ZM53.6265 30.96H54.1265C54.1265 30.243 53.8918 29.6234 53.3925 29.1552L53.0505 29.52L52.7085 29.8848C52.9772 30.1366 53.1265 30.477 53.1265 30.96H53.6265ZM53.0505 29.52L53.3925 29.1552C52.9459 28.7366 52.3761 28.4168 51.7021 28.1835L51.5385 28.656L51.3749 29.1285C51.9489 29.3272 52.3871 29.5834 52.7085 29.8848L53.0505 29.52ZM51.5385 28.656L51.718 28.1893C51.0757 27.9423 50.3866 27.7209 49.6513 27.5249L49.5225 28.008L49.3937 28.4911C50.0984 28.6791 50.7533 28.8897 51.359 29.1227L51.5385 28.656ZM49.5225 28.008L49.6579 27.5267C48.8979 27.3129 48.1254 27.0753 47.3406 26.8137L47.1825 27.288L47.0244 27.7623C47.8236 28.0287 48.6111 28.2711 49.3871 28.4893L49.5225 28.008ZM47.1825 27.288L47.345 26.8152C46.6127 26.5634 45.9546 26.245 45.3681 25.8615L45.0945 26.28L44.8209 26.6985C45.4824 27.131 46.2163 27.4846 47.02 27.7608L47.1825 27.288ZM45.0945 26.28L45.3791 25.8689C44.8149 25.4783 44.3468 24.9787 43.9739 24.3645L43.5465 24.624L43.1191 24.8835C43.5622 25.6133 44.1261 26.2177 44.8099 26.6911L45.0945 26.28ZM43.5465 24.624L43.9806 24.3759C43.65 23.7973 43.4705 23.0602 43.4705 22.14H42.9705H42.4705C42.4705 23.1878 42.675 24.1067 43.1124 24.8721L43.5465 24.624ZM42.9705 22.14H43.4705C43.4705 21.1104 43.753 20.2479 44.3037 19.5277L43.9065 19.224L43.5093 18.9203C42.812 19.8321 42.4705 20.9136 42.4705 22.14H42.9705ZM43.9065 19.224L44.2981 19.5349C44.8936 18.785 45.6564 18.1969 46.5966 17.7716L46.3905 17.316L46.1844 16.8604C45.1086 17.3471 44.2154 18.031 43.5149 18.9131L43.9065 19.224ZM46.3905 17.316L46.5926 17.7733C47.5569 17.3472 48.6036 17.132 49.7385 17.132V16.632V16.132C48.4734 16.132 47.2881 16.3728 46.1884 16.8587L46.3905 17.316ZM49.7385 16.632V17.132C50.3885 17.132 51.0796 17.2217 51.8132 17.4051L51.9345 16.92L52.0558 16.4349C51.2534 16.2343 50.4805 16.132 49.7385 16.132V16.632ZM51.9345 16.92L51.8277 17.4084C52.5492 17.5663 53.2501 17.8259 53.9312 18.1892L54.1665 17.748L54.4018 17.3068C53.6429 16.9021 52.8558 16.6097 52.0414 16.4315L51.9345 16.92ZM54.1665 17.748L53.9312 18.1892C54.5953 18.5433 55.1696 19.0072 55.6568 19.583L56.0385 19.26L56.4202 18.937C55.8514 18.2648 55.1777 17.7207 54.4018 17.3068L54.1665 17.748ZM56.0385 19.26L55.6422 19.5649C55.8147 19.7891 55.9163 20.0619 55.9353 20.4037L56.4345 20.376L56.9337 20.3483C56.9047 19.8261 56.7423 19.3549 56.4348 18.9551L56.0385 19.26ZM56.4345 20.376L55.9376 20.4312C55.9613 20.6446 55.8871 20.8723 55.5515 21.1333L55.8585 21.528L56.1655 21.9227C56.6939 21.5117 57.0037 20.9714 56.9314 20.3208L56.4345 20.376ZM55.8585 21.528L55.5384 21.1439C55.3572 21.2949 55.1375 21.3701 54.8439 21.3529L54.8145 21.852L54.7851 22.3511C55.3075 22.3819 55.7838 22.2411 56.1786 21.9121L55.8585 21.528ZM54.8145 21.852L54.8439 21.3529C54.5325 21.3345 54.3102 21.2382 54.1428 21.086L53.8065 21.456L53.4702 21.826C53.8308 22.1538 54.2805 22.3215 54.7851 22.3511L54.8145 21.852ZM53.8065 21.456L54.1985 21.1456C53.6879 20.5006 53.0317 20.0077 52.2413 19.6652L52.0425 20.124L51.8437 20.5828C52.4933 20.8643 53.0131 21.2594 53.4145 21.7663L53.8065 21.456ZM52.0425 20.124L52.2539 19.6709C51.4586 19.2998 50.5688 19.12 49.5945 19.12V19.62V20.12C50.4442 20.12 51.1864 20.2762 51.8311 20.5771L52.0425 20.124ZM49.5945 19.62V19.12C49.0857 19.12 48.5593 19.2003 48.0171 19.3552L48.1545 19.836L48.2919 20.3168C48.7577 20.1837 49.1913 20.12 49.5945 20.12V19.62ZM48.1545 19.836L48.0332 19.3509C47.4691 19.492 46.9797 19.7637 46.5769 20.1664L46.9305 20.52L47.2841 20.8736C47.5533 20.6043 47.8799 20.42 48.2758 20.3211L48.1545 19.836ZM46.9305 20.52L46.5769 20.1664C46.1172 20.6262 45.9265 21.2648 45.9265 21.996H46.4265H46.9265C46.9265 21.4312 47.0718 21.0858 47.2841 20.8736L46.9305 20.52ZM46.4265 21.996H45.9265C45.9265 22.713 46.1612 23.3326 46.6605 23.8008L47.0025 23.436L47.3445 23.0712C47.0758 22.8194 46.9265 22.479 46.9265 21.996H46.4265ZM47.0025 23.436L46.6717 23.8109C47.1364 24.221 47.722 24.549 48.4128 24.8049L48.5865 24.336L48.7602 23.8671C48.155 23.643 47.6846 23.371 47.3333 23.0611L47.0025 23.436ZM48.5865 24.336L48.4128 24.8049C49.0803 25.0521 49.806 25.2733 50.5892 25.4691L50.7105 24.984L50.8318 24.4989C50.079 24.3107 49.3887 24.0999 48.7602 23.8671L48.5865 24.336ZM50.7105 24.984L50.5856 25.4681C51.3136 25.656 52.0299 25.8791 52.7344 26.1374L52.9065 25.668L53.0786 25.1986C52.3431 24.9289 51.5954 24.696 50.8354 24.4999L50.7105 24.984ZM52.9065 25.668L52.7393 26.1392C53.4402 26.3879 54.0546 26.7131 54.5865 27.112L54.8865 26.712L55.1865 26.312C54.5664 25.8469 53.8608 25.4761 53.0737 25.1968L52.9065 25.668ZM54.8865 26.712L54.6053 27.1255C55.1352 27.4858 55.5619 27.9635 55.8858 28.5681L56.3265 28.332L56.7672 28.0959C56.3711 27.3565 55.8378 26.7542 55.1677 26.2985L54.8865 26.712ZM56.3265 28.332L55.8964 28.5869C56.2217 29.1359 56.4025 29.8683 56.4025 30.816H56.9025H57.4025C57.4025 29.7477 57.1993 28.8241 56.7566 28.0771L56.3265 28.332ZM56.9025 30.816H56.4025C56.4025 31.8853 56.0892 32.7779 55.4735 33.521L55.8585 33.84L56.2435 34.159C57.0198 33.2221 57.4025 32.0987 57.4025 30.816H56.9025ZM55.8585 33.84L55.4725 33.5221C54.8572 34.2693 54.0629 34.846 53.0772 35.2492L53.2665 35.712L53.4558 36.1748C54.5821 35.714 55.5158 35.0427 56.2445 34.1579L55.8585 33.84ZM53.2665 35.712L53.0734 35.2508C52.1044 35.6564 51.0782 35.86 49.9905 35.86V36.36V36.86C51.2068 36.86 52.3646 36.6316 53.4596 36.1732L53.2665 35.712ZM49.9905 36.36V35.86C48.6822 35.86 47.37 35.6307 46.052 35.1682L45.8865 35.64L45.721 36.1118C47.139 36.6093 48.5628 36.86 49.9905 36.86V36.36ZM45.8865 35.64L46.0621 35.1718C44.8124 34.7032 43.7471 33.8995 42.8637 32.7443L42.4665 33.048L42.0693 33.3517C43.0579 34.6445 44.2726 35.5688 45.7109 36.1082L45.8865 35.64ZM77.4059 35.352L77.8086 35.0553L77.801 35.0455L77.4059 35.352ZM68.4419 23.796L68.0861 23.4447L67.7784 23.7564L68.0468 24.1025L68.4419 23.796ZM71.2139 20.988L71.6106 20.6836L71.2612 20.2284L70.8581 20.6367L71.2139 20.988ZM80.3579 32.904L80.7579 32.604L80.7546 32.5996L80.3579 32.904ZM80.1419 35.532L80.4489 35.9267L80.1419 35.532ZM80.1059 11.268L80.494 10.9527V10.9527L80.1059 11.268ZM80.0339 13.644L80.3782 14.0068L80.3875 13.9976L80.0339 13.644ZM64.5179 28.368L64.0186 28.3934L64.0737 29.4788L64.8621 28.7307L64.5179 28.368ZM64.3019 24.12L63.9543 23.7606L63.791 23.9185L63.8026 24.1454L64.3019 24.12ZM77.4779 11.376L77.8255 11.7354L77.8334 11.7278L77.8409 11.7199L77.4779 11.376ZM61.6739 35.496L61.3084 35.8372L61.3201 35.8498L61.3327 35.8615L61.6739 35.496ZM61.7099 11.34L62.0511 11.7055L62.0574 11.6996L62.0635 11.6936L61.7099 11.34ZM64.4459 11.34L64.0804 11.6812L64.0863 11.6875L64.0924 11.6936L64.4459 11.34ZM64.9499 34.164L65.4494 34.1867L65.4499 34.1754V34.164H64.9499ZM64.4099 35.496L64.7635 35.8496L64.7696 35.8435L64.7754 35.8372L64.4099 35.496ZM78.7379 36.036V35.536C78.3496 35.536 78.0531 35.3874 77.8084 35.0554L77.4059 35.352L77.0034 35.6486C77.4307 36.2286 78.0222 36.536 78.7379 36.536V36.036ZM77.4059 35.352L77.801 35.0455L68.837 23.4895L68.4419 23.796L68.0468 24.1025L77.0108 35.6585L77.4059 35.352ZM68.4419 23.796L68.7977 24.1473L71.5697 21.3393L71.2139 20.988L70.8581 20.6367L68.0861 23.4447L68.4419 23.796ZM71.2139 20.988L70.8172 21.2924L79.9612 33.2084L80.3579 32.904L80.7546 32.5996L71.6106 20.6836L71.2139 20.988ZM80.3579 32.904L79.9579 33.204C80.1846 33.5063 80.2899 33.8221 80.2899 34.164H80.7899H81.2899C81.2899 33.5939 81.1072 33.0697 80.7579 32.604L80.3579 32.904ZM80.7899 34.164H80.2899C80.2899 34.5951 80.1379 34.9017 79.8349 35.1373L80.1419 35.532L80.4489 35.9267C81.0099 35.4903 81.2899 34.8849 81.2899 34.164H80.7899ZM80.1419 35.532L79.8349 35.1373C79.4827 35.4113 79.121 35.536 78.7379 35.536V36.036V36.536C79.3628 36.536 79.9371 36.3247 80.4489 35.9267L80.1419 35.532ZM78.9179 10.692V11.192C79.2421 11.192 79.4974 11.312 79.7178 11.5833L80.1059 11.268L80.494 10.9527C80.0904 10.456 79.5538 10.192 78.9179 10.192V10.692ZM80.1059 11.268L79.7178 11.5833C79.9734 11.8978 80.0739 12.1858 80.0739 12.456H80.5739H81.0739C81.0739 11.9102 80.8624 11.4062 80.494 10.9527L80.1059 11.268ZM80.5739 12.456H80.0739C80.0739 12.7319 79.9646 13.0062 79.6804 13.2904L80.0339 13.644L80.3875 13.9976C80.8232 13.5618 81.0739 13.0441 81.0739 12.456H80.5739ZM80.0339 13.644L79.6897 13.2813L64.1737 28.0053L64.5179 28.368L64.8621 28.7307L80.3781 14.0067L80.0339 13.644ZM64.5179 28.368L65.0173 28.3426L64.8013 24.0946L64.3019 24.12L63.8026 24.1454L64.0186 28.3934L64.5179 28.368ZM64.3019 24.12L64.6495 24.4794L77.8255 11.7354L77.4779 11.376L77.1303 11.0166L63.9543 23.7606L64.3019 24.12ZM77.4779 11.376L77.8409 11.7199C78.1978 11.3431 78.5531 11.192 78.9179 11.192V10.692V10.192C78.2268 10.192 77.622 10.4969 77.1149 11.0321L77.4779 11.376ZM63.0419 36V35.5C62.6 35.5 62.271 35.3694 62.0151 35.1305L61.6739 35.496L61.3327 35.8615C61.7968 36.2946 62.3798 36.5 63.0419 36.5V36ZM61.6739 35.496L62.0394 35.1548C61.7964 34.8945 61.6699 34.5754 61.6699 34.164H61.1699H60.6699C60.6699 34.8086 60.8794 35.3775 61.3084 35.8372L61.6739 35.496ZM61.1699 34.164H61.6699V12.636H61.1699H60.6699V34.164H61.1699ZM61.1699 12.636H61.6699C61.6699 12.2354 61.8003 11.9396 62.0511 11.7055L61.7099 11.34L61.3687 10.9745C60.8995 11.4124 60.6699 11.9806 60.6699 12.636H61.1699ZM61.7099 11.34L62.0635 11.6936C62.3171 11.4399 62.6515 11.3 63.1139 11.3V10.8V10.3C62.4243 10.3 61.8227 10.5201 61.3564 10.9864L61.7099 11.34ZM63.1139 10.8V11.3C63.5458 11.3 63.8509 11.4353 64.0804 11.6812L64.4459 11.34L64.8114 10.9988C64.3689 10.5247 63.786 10.3 63.1139 10.3V10.8ZM64.4459 11.34L64.0924 11.6936C64.3238 11.9249 64.4499 12.2245 64.4499 12.636H64.9499H65.4499C65.4499 11.9915 65.2401 11.427 64.7995 10.9864L64.4459 11.34ZM64.9499 12.636H64.4499V34.164H64.9499H65.4499V12.636H64.9499ZM64.9499 34.164L64.4504 34.1413C64.4314 34.56 64.2931 34.8883 64.0444 35.1548L64.4099 35.496L64.7754 35.8372C65.1987 35.3837 65.4204 34.824 65.4494 34.1867L64.9499 34.164ZM64.4099 35.496L64.0564 35.1424C63.8334 35.3654 63.5153 35.5 63.0419 35.5V36V36.5C63.7205 36.5 64.3144 36.2986 64.7635 35.8496L64.4099 35.496ZM87.9578 35.496L87.6043 35.1424V35.1424L87.9578 35.496ZM85.4018 35.496L85.0363 35.8372L85.0481 35.8498L85.0607 35.8615L85.4018 35.496ZM85.4378 9.9L85.779 10.2655L85.7853 10.2596L85.7914 10.2536L85.4378 9.9ZM87.9938 9.9L87.616 10.2275L87.6277 10.2409L87.6403 10.2536L87.9938 9.9ZM88.4978 34.164H87.9978C87.9978 34.5649 87.8667 34.88 87.6043 35.1424L87.9578 35.496L88.3114 35.8496C88.769 35.392 88.9978 34.8191 88.9978 34.164H88.4978ZM87.9578 35.496L87.6043 35.1424C87.3682 35.3785 87.0782 35.5 86.6978 35.5V36V36.5C87.3255 36.5 87.8755 36.2854 88.3114 35.8496L87.9578 35.496ZM86.6978 36V35.5C86.3172 35.5 86.008 35.3778 85.743 35.1305L85.4018 35.496L85.0607 35.8615C85.5157 36.2862 86.0705 36.5 86.6978 36.5V36ZM85.4018 35.496L85.7674 35.1548C85.5244 34.8945 85.3978 34.5754 85.3978 34.164H84.8978H84.3978C84.3978 34.8086 84.6073 35.3775 85.0363 35.8372L85.4018 35.496ZM84.8978 34.164H85.3978V11.196H84.8978H84.3978V34.164H84.8978ZM84.8978 11.196H85.3978C85.3978 10.7954 85.5282 10.4996 85.779 10.2655L85.4378 9.9L85.0967 9.53447C84.6275 9.97241 84.3978 10.5406 84.3978 11.196H84.8978ZM85.4378 9.9L85.7914 10.2536C86.0587 9.98625 86.364 9.86 86.7338 9.86V9.36V8.86C86.0957 8.86 85.537 9.09375 85.0843 9.54645L85.4378 9.9ZM86.7338 9.36V9.86C87.1345 9.86 87.4099 9.9897 87.616 10.2275L87.9938 9.9L88.3717 9.57253C87.9538 9.09029 87.3892 8.86 86.7338 8.86V9.36ZM87.9938 9.9L87.6403 10.2536C87.8717 10.485 87.9978 10.7845 87.9978 11.196H88.4978H88.9978C88.9978 10.5515 88.788 9.98705 88.3474 9.54645L87.9938 9.9ZM88.4978 11.196H87.9978V34.164H88.4978H88.9978V11.196H88.4978ZM96.7359 35.496L97.0895 35.8496L97.0956 35.8435L97.1015 35.8372L96.7359 35.496ZM94.1439 35.496L93.7784 35.8372L93.7902 35.8498L93.8028 35.8615L94.1439 35.496ZM94.1439 17.46L93.7904 17.1064V17.1064L94.1439 17.46ZM96.7359 17.46L96.3704 17.8012L96.3763 17.8075L96.3824 17.8136L96.7359 17.46ZM93.8919 14.184L93.569 14.5657L93.5779 14.5732L93.5871 14.5803L93.8919 14.184ZM93.9279 11.052L94.2186 11.4589V11.4589L93.9279 11.052ZM96.9879 11.088L96.665 11.4697L96.6739 11.4772L96.6831 11.4843L96.9879 11.088ZM96.9519 14.184L96.6613 13.7771L96.6541 13.7823L96.6471 13.7877L96.9519 14.184ZM97.2399 34.164H96.7399C96.7399 34.5754 96.6134 34.8945 96.3704 35.1548L96.7359 35.496L97.1015 35.8372C97.5305 35.3775 97.7399 34.8086 97.7399 34.164H97.2399ZM96.7359 35.496L96.3824 35.1424C96.151 35.3738 95.8515 35.5 95.4399 35.5V36V36.5C96.0844 36.5 96.6489 36.2902 97.0895 35.8496L96.7359 35.496ZM95.4399 36V35.5C95.0593 35.5 94.7501 35.3778 94.4851 35.1305L94.1439 35.496L93.8028 35.8615C94.2577 36.2862 94.8126 36.5 95.4399 36.5V36ZM94.1439 35.496L94.5095 35.1548C94.2665 34.8945 94.1399 34.5754 94.1399 34.164H93.6399H93.1399C93.1399 34.8086 93.3494 35.3775 93.7784 35.8372L94.1439 35.496ZM93.6399 34.164H94.1399V18.756H93.6399H93.1399V34.164H93.6399ZM93.6399 18.756H94.1399C94.1399 18.3445 94.2661 18.045 94.4975 17.8136L94.1439 17.46L93.7904 17.1064C93.3498 17.547 93.1399 18.1115 93.1399 18.756H93.6399ZM94.1439 17.46L94.4975 17.8136C94.7648 17.5462 95.0701 17.42 95.4399 17.42V16.92V16.42C94.8018 16.42 94.2431 16.6537 93.7904 17.1064L94.1439 17.46ZM95.4399 16.92V17.42C95.8405 17.42 96.1364 17.5504 96.3704 17.8012L96.7359 17.46L97.1015 17.1188C96.6635 16.6496 96.0953 16.42 95.4399 16.42V16.92ZM96.7359 17.46L96.3824 17.8136C96.6138 18.045 96.7399 18.3445 96.7399 18.756H97.2399H97.7399C97.7399 18.1115 97.5301 17.547 97.0895 17.1064L96.7359 17.46ZM97.2399 18.756H96.7399V34.164H97.2399H97.7399V18.756H97.2399ZM95.4039 14.544V14.044C94.7429 14.044 94.3762 13.9257 94.1968 13.7877L93.8919 14.184L93.5871 14.5803C94.0317 14.9223 94.673 15.044 95.4039 15.044V14.544ZM93.8919 14.184L94.2149 13.8023C94.0597 13.671 93.9239 13.4114 93.9239 12.888H93.4239H92.9239C92.9239 13.5646 93.1002 14.169 93.569 14.5657L93.8919 14.184ZM93.4239 12.888H93.9239V12.312H93.4239H92.9239V12.888H93.4239ZM93.4239 12.312H93.9239C93.9239 11.796 94.0664 11.5676 94.2186 11.4589L93.9279 11.052L93.6373 10.6451C93.1175 11.0164 92.9239 11.628 92.9239 12.312H93.4239ZM93.9279 11.052L94.2186 11.4589C94.4315 11.3068 94.8124 11.192 95.4399 11.192V10.692V10.192C94.7235 10.192 94.0964 10.3172 93.6373 10.6451L93.9279 11.052ZM95.4399 10.692V11.192C96.1229 11.192 96.4902 11.3218 96.665 11.4697L96.9879 11.088L97.3109 10.7063C96.8616 10.3262 96.197 10.192 95.4399 10.192V10.692ZM96.9879 11.088L96.6831 11.4843C96.8228 11.5918 96.9559 11.8163 96.9559 12.312H97.4559H97.9559C97.9559 11.6557 97.7771 11.0642 97.2928 10.6917L96.9879 11.088ZM97.4559 12.312H96.9559V12.888H97.4559H97.9559V12.312H97.4559ZM97.4559 12.888H96.9559C96.9559 13.4366 96.8088 13.6718 96.6613 13.7771L96.9519 14.184L97.2426 14.5909C97.7671 14.2162 97.9559 13.5874 97.9559 12.888H97.4559ZM96.9519 14.184L96.6471 13.7877C96.4698 13.9241 96.0937 14.044 95.4039 14.044V14.544V15.044C96.1542 15.044 96.8101 14.9239 97.2568 14.5803L96.9519 14.184ZM112.307 9.576L112.185 10.0611V10.0611L112.307 9.576ZM113.494 10.188L113.155 10.5554L113.17 10.5689L113.186 10.5812L113.494 10.188ZM113.566 12.492L113.92 12.8456L113.927 12.8385L113.934 12.8311L113.566 12.492ZM111.587 12.78L111.445 13.2597L111.459 13.2636L111.472 13.2667L111.587 12.78ZM109.031 12.996L109.321 13.4029L109.33 13.3962L109.339 13.3892L109.031 12.996ZM108.311 13.932L108.775 14.1177L108.779 14.1076L108.311 13.932ZM107.555 35.496L107.908 35.8496V35.8496L107.555 35.496ZM104.998 35.496L104.633 35.8372L104.639 35.8435L104.645 35.8496L104.998 35.496ZM106.115 10.98L105.769 10.6187L105.765 10.6225L106.115 10.98ZM112.811 20.232L113.164 20.5856V20.5856L112.811 20.232ZM101.11 20.232L100.757 20.5856L100.763 20.5921L100.77 20.5984L101.11 20.232ZM101.11 17.856L100.77 17.4896L100.763 17.4959L100.757 17.5024L101.11 17.856ZM110.903 9.396V9.896C111.314 9.896 111.742 9.95015 112.185 10.0611L112.307 9.576L112.428 9.09093C111.911 8.96185 111.403 8.896 110.903 8.896V9.396ZM112.307 9.576L112.185 10.0611C112.597 10.1641 112.914 10.333 113.155 10.5554L113.494 10.188L113.834 9.8206C113.451 9.46697 112.976 9.22788 112.428 9.09093L112.307 9.576ZM113.494 10.188L113.186 10.5812C113.385 10.7378 113.499 10.9559 113.499 11.304H113.999H114.499C114.499 10.6921 114.276 10.1662 113.803 9.79484L113.494 10.188ZM113.999 11.304H113.499C113.499 11.676 113.391 11.9454 113.199 12.1529L113.566 12.492L113.934 12.8311C114.318 12.4146 114.499 11.892 114.499 11.304H113.999ZM113.566 12.492L113.213 12.1384C113.012 12.339 112.801 12.424 112.559 12.424V12.924V13.424C113.084 13.424 113.545 13.221 113.92 12.8456L113.566 12.492ZM112.559 12.924V12.424C112.375 12.424 112.095 12.386 111.701 12.2933L111.587 12.78L111.472 13.2667C111.894 13.366 112.262 13.424 112.559 13.424V12.924ZM111.587 12.78L111.728 12.3003C111.276 12.1674 110.82 12.1 110.363 12.1V12.6V13.1C110.721 13.1 111.081 13.1526 111.445 13.2597L111.587 12.78ZM110.363 12.6V12.1C109.731 12.1 109.169 12.2517 108.722 12.6028L109.031 12.996L109.339 13.3892C109.564 13.2123 109.89 13.1 110.363 13.1V12.6ZM109.031 12.996L108.74 12.5891C108.324 12.8865 108.021 13.2787 107.842 13.7564L108.311 13.932L108.779 14.1076C108.888 13.8173 109.065 13.5855 109.321 13.4029L109.031 12.996ZM108.311 13.932L107.846 13.7463C107.68 14.1608 107.594 14.5836 107.594 15.012H108.094H108.594C108.594 14.7204 108.653 14.4232 108.775 14.1177L108.311 13.932ZM108.094 15.012H107.594V34.164H108.094H108.594V15.012H108.094ZM108.094 34.164H107.594C107.594 34.5649 107.463 34.88 107.201 35.1424L107.555 35.496L107.908 35.8496C108.366 35.392 108.594 34.8191 108.594 34.164H108.094ZM107.555 35.496L107.201 35.1424C106.965 35.3785 106.675 35.5 106.295 35.5V36V36.5C106.922 36.5 107.472 36.2854 107.908 35.8496L107.555 35.496ZM106.295 36V35.5C105.883 35.5 105.583 35.3738 105.352 35.1424L104.998 35.496L104.645 35.8496C105.086 36.2902 105.65 36.5 106.295 36.5V36ZM104.998 35.496L105.364 35.1548C105.121 34.8945 104.994 34.5754 104.994 34.164H104.494H103.994C103.994 34.8086 104.204 35.3775 104.633 35.8372L104.998 35.496ZM104.494 34.164H104.994V15.048H104.494H103.994V34.164H104.494ZM104.494 15.048H104.994C104.994 13.5122 105.49 12.2899 106.464 11.3375L106.115 10.98L105.765 10.6225C104.579 11.7821 103.994 13.2717 103.994 15.048H104.494ZM106.115 10.98L106.46 11.3413C107.441 10.4028 108.895 9.896 110.903 9.896V9.396V8.896C108.734 8.896 106.996 9.44525 105.769 10.6187L106.115 10.98ZM111.622 17.388V17.888C111.983 17.888 112.247 18 112.457 18.2096L112.811 17.856L113.164 17.5024C112.75 17.088 112.222 16.888 111.622 16.888V17.388ZM112.811 17.856L112.457 18.2096C112.666 18.4191 112.779 18.6838 112.779 19.044H113.279H113.779C113.779 18.4442 113.579 17.9169 113.164 17.5024L112.811 17.856ZM113.279 19.044H112.779C112.779 19.4042 112.666 19.6689 112.457 19.8784L112.811 20.232L113.164 20.5856C113.579 20.1711 113.779 19.6438 113.779 19.044H113.279ZM112.811 20.232L112.457 19.8784C112.247 20.088 111.983 20.2 111.622 20.2V20.7V21.2C112.222 21.2 112.75 21 113.164 20.5856L112.811 20.232ZM111.622 20.7V20.2H102.299V20.7V21.2H111.622V20.7ZM102.299 20.7V20.2C101.969 20.2 101.695 20.0923 101.451 19.8656L101.11 20.232L100.77 20.5984C101.198 20.9957 101.716 21.2 102.299 21.2V20.7ZM101.11 20.232L101.464 19.8784C101.255 19.6689 101.143 19.4042 101.143 19.044H100.643H100.143C100.143 19.6438 100.342 20.1711 100.757 20.5856L101.11 20.232ZM100.643 19.044H101.143C101.143 18.6838 101.255 18.4191 101.464 18.2096L101.11 17.856L100.757 17.5024C100.342 17.9169 100.143 18.4442 100.143 19.044H100.643ZM101.11 17.856L101.451 18.2224C101.695 17.9957 101.969 17.888 102.299 17.888V17.388V16.888C101.716 16.888 101.198 17.0923 100.77 17.4896L101.11 17.856ZM102.299 17.388V17.888H111.622V17.388V16.888H102.299V17.388Z" fill="#F3F1FA"/>
</svg>
